<?xml version="1.0" encoding="UTF-8" standalone="no"?>
<!-- Created with Inkscape (http://www.inkscape.org/) -->

<svg
   xmlns:dc="http://purl.org/dc/elements/1.1/"
   xmlns:cc="http://creativecommons.org/ns#"
   xmlns:rdf="http://www.w3.org/1999/02/22-rdf-syntax-ns#"
   xmlns:svg="http://www.w3.org/2000/svg"
   xmlns="http://www.w3.org/2000/svg"
   version="1.1"
   width="239.32375"
   height="88.582878"
   id="svg4374"
   xml:space="preserve"><metadata
     id="metadata4380"><rdf:RDF><cc:Work
         rdf:about=""><dc:format>image/svg+xml</dc:format><dc:type
           rdf:resource="http://purl.org/dc/dcmitype/StillImage" /><dc:title></dc:title></cc:Work></rdf:RDF></metadata><defs
     id="defs4378" /><g
     transform="matrix(1.25,0,0,-1.25,-252.38512,522.63837)"
     id="g4382"><g
       transform="translate(319.1516,392.9187)"
       id="g4400" /><g
       transform="translate(320.5083,404.0861)"
       id="g4406" /><g
       id="g4468"><g
         transform="translate(268.111,404.3985)"
         id="g4388"><path
           d="m 0,0 c -6.796,-12.586 -12.657,-17.788 -17.162,-18.704 -9.491,1.305 -10.892,23.597 1.441,25.343 0.624,-0.037 1.276,-0.12 1.956,-0.252 C -9.967,5.648 -5.066,2.851 0,0 z m -24.947,13.711 35.273,0 0,-2.189 C 6.114,9.045 2.131,4.065 0.862,1.625 L 0.575,1.076 c -4.433,2.485 -8.651,4.745 -12.007,5.398 -1.132,0.221 -2.184,0.304 -3.16,0.267 l -2.287,-0.086 -0.046,-0.001 c -3.776,-0.142 -6.404,-2.082 -8.022,-4.832 l 0,11.889 z m 35.273,-3.727 0,-14.535 c -2.158,1.187 -4.378,2.549 -6.582,3.83 L 3.17,-1.783 c 2.425,-1.382 4.844,-2.814 7.156,-3.949 l 0,-15.829 -35.273,0 0,6.922 c 1.472,-2.595 3.711,-4.319 6.587,-4.211 11.666,0.438 16.709,11.736 20.109,17.87 L 2.332,0.088 C 2.618,0.617 2.905,1.157 3.194,1.713 4.206,3.657 7.1,7.345 10.326,9.984"
           id="path4390"
           style="fill:#666666;fill-opacity:1;fill-rule:evenodd;stroke:none" /></g><g
         transform="translate(307.5721,397.1117)"
         id="g4392"><path
           d="m 0,0 c -0.117,0.109 -0.181,0.256 -0.189,0.404 -0.009,0.149 0.039,0.302 0.144,0.422 l 0.003,0.003 0.007,0.008 0.001,0.001 C 0.072,0.952 0.214,1.013 0.358,1.02 l 0.001,0 C 0.502,1.026 0.648,0.978 0.764,0.875 L 0.769,0.872 0.776,0.865 C 1.171,0.501 1.508,0.096 1.793,-0.339 l 0,-0.001 C 2.092,-0.8 2.334,-1.292 2.524,-1.807 2.877,-2.767 3.051,-3.812 3.09,-4.87 3.132,-6.059 3.003,-7.264 2.764,-8.386 2.545,-9.419 2.229,-10.39 1.866,-11.218 1.484,-12.092 1.046,-12.811 0.612,-13.28 l 0.001,-0.001 c -0.139,-0.15 -0.282,-0.28 -0.424,-0.384 -0.147,-0.107 -0.295,-0.189 -0.443,-0.243 l 0,0 0,0 -0.002,-0.001 c -0.15,-0.054 -0.309,-0.041 -0.444,0.024 -0.133,0.064 -0.243,0.18 -0.298,0.33 l 0.001,0 0,0 -0.001,0.003 c -0.055,0.151 -0.045,0.311 0.016,0.445 0.061,0.138 0.175,0.251 0.326,0.306 0.055,0.021 0.117,0.057 0.182,0.107 l 0.001,0 c 0.076,0.057 0.156,0.132 0.239,0.222 l 0,10e-4 c 0.358,0.388 0.729,1.007 1.061,1.776 0.321,0.744 0.604,1.625 0.805,2.569 0.219,1.026 0.338,2.124 0.302,3.198 -0.032,0.945 -0.185,1.873 -0.496,2.72 -0.159,0.432 -0.36,0.842 -0.606,1.22 C 0.598,-0.629 0.322,-0.297 0.001,0 L 0,0 z M -23.946,17.408 C -23.97,17.4 -23.995,17.394 -24.019,17.39 l 0,0 c -0.128,-0.022 -0.252,0.006 -0.355,0.072 -0.098,0.063 -0.176,0.162 -0.215,0.286 l -0.002,10e-4 c -0.007,0.024 -0.013,0.05 -0.018,0.079 -0.025,0.147 0.007,0.297 0.078,0.419 0.073,0.126 0.189,0.226 0.33,0.272 l 0,0 c 0.589,0.188 1.173,0.28 1.748,0.289 l 10e-4,0 c 0.608,0.009 1.206,-0.074 1.786,-0.234 0.872,-0.239 1.706,-0.651 2.481,-1.177 0.857,-0.58 1.641,-1.3 2.329,-2.077 0.63,-0.714 1.182,-1.482 1.634,-2.24 0.48,-0.807 0.846,-1.603 1.074,-2.313 0.137,-0.428 0.226,-0.834 0.261,-1.202 0.035,-0.37 0.016,-0.706 -0.062,-0.991 l 0,-10e-4 C -12.99,8.425 -13.082,8.302 -13.195,8.223 -13.319,8.138 -13.471,8.102 -13.62,8.138 l -0.001,10e-4 -0.01,0.002 -0.007,0.002 c -0.143,0.04 -0.255,0.138 -0.319,0.267 -0.059,0.118 -0.078,0.262 -0.044,0.405 l 0,0.004 0.004,0.015 0.002,0.005 c 0.042,0.153 0.047,0.356 0.019,0.599 -0.031,0.263 -0.101,0.566 -0.206,0.895 -0.205,0.638 -0.539,1.361 -0.978,2.096 -0.416,0.698 -0.927,1.406 -1.511,2.068 -0.631,0.714 -1.348,1.372 -2.124,1.901 -0.693,0.472 -1.433,0.841 -2.2,1.051 -0.489,0.135 -0.991,0.205 -1.5,0.198 -0.477,-0.007 -0.962,-0.083 -1.45,-0.239 l -0.001,0 z m 1.171,-1.844 c 0.014,0.162 0.092,0.304 0.207,0.401 l 0.001,0 c 0.115,0.097 0.267,0.15 0.428,0.136 l 0,0 c 0.162,-0.013 0.303,-0.092 0.401,-0.208 l -0.001,0 c 0.097,-0.116 0.15,-0.268 0.137,-0.428 -0.037,-0.446 -0.013,-0.884 0.062,-1.311 0.08,-0.455 0.217,-0.897 0.401,-1.321 0.351,-0.811 0.873,-1.573 1.496,-2.266 0.706,-0.786 1.541,-1.482 2.402,-2.063 0.794,-0.535 1.606,-0.971 2.359,-1.286 0.781,-0.328 1.495,-0.526 2.05,-0.571 l 0.001,0 c 0.151,-0.013 0.284,-0.014 0.396,-0.003 0.102,0.01 0.186,0.028 0.249,0.055 0.148,0.065 0.309,0.063 0.449,0.007 0.139,-0.055 0.258,-0.164 0.322,-0.312 l 0,0 0,-0.001 c 0.065,-0.148 0.063,-0.309 0.007,-0.448 -0.055,-0.139 -0.163,-0.258 -0.311,-0.322 l -0.001,-0.001 0,-10e-4 c -0.163,-0.07 -0.349,-0.117 -0.554,-0.141 -0.2,-0.024 -0.42,-0.025 -0.654,-0.006 -0.659,0.054 -1.482,0.277 -2.368,0.645 -0.837,0.347 -1.733,0.824 -2.601,1.409 -0.941,0.634 -1.856,1.402 -2.636,2.274 -0.695,0.777 -1.282,1.639 -1.683,2.566 -0.223,0.514 -0.389,1.047 -0.484,1.594 -0.091,0.52 -0.12,1.055 -0.075,1.602 z m 3.503,-12.253 c -0.04,-0.014 -0.079,-0.023 -0.117,-0.028 l 0,10e-4 c -0.115,-0.014 -0.224,0.009 -0.315,0.061 l 0.001,0 c -0.096,0.056 -0.171,0.144 -0.208,0.253 -0.012,0.033 -0.02,0.068 -0.025,0.103 -0.017,0.141 0.024,0.287 0.104,0.407 0.077,0.115 0.193,0.211 0.33,0.258 l 0,-10e-4 c 0.729,0.252 1.442,0.363 2.13,0.359 0.747,-0.005 1.462,-0.144 2.136,-0.385 0.66,-0.236 1.283,-0.57 1.856,-0.969 0.623,-0.433 1.19,-0.946 1.688,-1.496 0.463,-0.511 0.865,-1.054 1.197,-1.594 0.351,-0.571 0.625,-1.144 0.809,-1.676 0.093,-0.268 0.163,-0.527 0.209,-0.771 0.023,-0.124 0.041,-0.246 0.052,-0.365 0.033,0.01 0.066,0.02 0.099,0.029 0.146,0.038 0.295,0.062 0.444,0.072 0.293,0.019 0.592,-0.016 0.878,-0.107 0.157,-0.051 0.309,-0.117 0.455,-0.2 0.051,0.215 0.127,0.418 0.225,0.606 0.131,0.252 0.302,0.481 0.502,0.677 -0.057,0.035 -0.107,0.083 -0.145,0.142 l -0.003,0.005 -0.004,0.007 -0.002,0.002 c -0.074,0.125 -0.08,0.271 -0.029,0.407 l -0.001,0 c 0.043,0.117 0.131,0.226 0.252,0.304 l 0.005,0.002 0.014,0.009 0.003,0.002 c 0.18,0.107 0.375,0.311 0.57,0.592 0.209,0.299 0.417,0.683 0.61,1.126 l 0.007,0.016 0.004,0.01 c 0.24,0.554 0.45,1.192 0.607,1.87 0.147,0.635 0.248,1.305 0.283,1.974 0.038,0.716 0,1.433 -0.134,2.107 -0.122,0.606 -0.322,1.176 -0.617,1.675 -0.207,0.35 -0.462,0.667 -0.768,0.938 -0.29,0.257 -0.628,0.475 -1.018,0.644 l 0,-0.001 c -0.035,0.015 -0.068,0.035 -0.099,0.058 -0.089,0.067 -0.147,0.159 -0.17,0.262 -0.021,0.098 -0.012,0.203 0.031,0.302 l 0.001,0 c 0.017,0.041 0.041,0.081 0.069,0.118 0.085,0.114 0.208,0.196 0.337,0.237 0.136,0.042 0.285,0.04 0.414,-0.015 l -10e-4,-10e-4 c 0.489,-0.211 0.911,-0.482 1.27,-0.799 C -4.952,10.2 -4.637,9.809 -4.382,9.377 -4.037,8.793 -3.803,8.135 -3.662,7.439 -3.509,6.682 -3.466,5.883 -3.508,5.086 -3.547,4.356 -3.656,3.626 -3.817,2.935 -3.988,2.197 -4.219,1.498 -4.484,0.886 L -4.489,0.876 -4.495,0.864 c -0.237,-0.546 -0.508,-1.029 -0.794,-1.419 -0.046,-0.063 -0.093,-0.124 -0.14,-0.182 0.225,0.04 0.457,0.052 0.693,0.032 0.358,-0.03 0.696,-0.131 0.997,-0.287 0.194,-0.1 0.373,-0.223 0.535,-0.365 0.089,0.352 0.197,0.696 0.325,1.029 0.171,0.444 0.38,0.869 0.628,1.264 0.294,0.468 0.644,0.895 1.054,1.268 0.39,0.354 0.835,0.661 1.339,0.907 l 0.001,0 C 0.277,3.176 0.432,3.181 0.571,3.137 0.706,3.095 0.83,3.006 0.912,2.88 l 0,0 C 0.927,2.857 0.939,2.834 0.95,2.814 l 0,0 C 1.007,2.696 1.02,2.568 0.992,2.452 L 0.993,2.451 C 0.964,2.33 0.891,2.222 0.779,2.149 L 0.776,2.146 C 0.759,2.136 0.742,2.126 0.722,2.116 l 0,0 C 0.307,1.913 -0.059,1.661 -0.38,1.369 -0.72,1.059 -1.011,0.703 -1.255,0.314 c -0.289,-0.46 -0.516,-0.968 -0.689,-1.508 -0.184,-0.573 -0.307,-1.184 -0.377,-1.808 0.011,-0.088 0.019,-0.18 0.022,-0.275 0.003,-0.105 0,-0.207 -0.008,-0.306 -0.007,-0.083 -0.019,-0.169 -0.035,-0.258 l 0,-10e-4 c -0.014,-0.079 -0.032,-0.155 -0.051,-0.226 -0.003,-0.132 -0.004,-0.263 -0.003,-0.393 0,-0.139 0.004,-0.284 0.01,-0.43 l 0,-0.001 c 0.035,-0.906 0.159,-1.797 0.344,-2.61 0.195,-0.859 0.459,-1.631 0.759,-2.245 0.144,-0.297 0.293,-0.55 0.441,-0.748 0.134,-0.18 0.265,-0.314 0.389,-0.394 l 0,0 0.001,-0.001 0.009,-0.006 c 0.13,-0.083 0.221,-0.205 0.262,-0.336 l 0,-0.001 c 0.044,-0.143 0.03,-0.297 -0.052,-0.428 l -0.003,-0.005 c -0.084,-0.13 -0.216,-0.208 -0.364,-0.23 -0.135,-0.02 -0.286,0.008 -0.417,0.09 l -0.001,10e-4 c -0.239,0.15 -0.471,0.372 -0.689,0.653 l -10e-4,0 c -0.217,0.278 -0.422,0.617 -0.611,1.002 -0.315,0.648 -0.596,1.451 -0.808,2.34 -0.168,0.702 -0.294,1.458 -0.362,2.234 -0.053,-0.035 -0.109,-0.069 -0.165,-0.101 -0.144,-0.081 -0.294,-0.149 -0.45,-0.202 -0.149,-1.695 -0.45,-2.771 -0.776,-3.286 -0.14,-0.223 -0.297,-0.36 -0.459,-0.413 -0.198,-0.067 -0.387,-0.016 -0.554,0.144 -0.183,0.176 -0.34,0.514 -0.445,0.997 l -0.013,0.005 -0.001,0 c -0.071,0.025 -0.138,0.063 -0.197,0.116 l -1.432,1.271 C -8.119,-7.09 -8.26,-7.123 -8.402,-7.143 l 0,0 c -0.19,-0.026 -0.383,-0.03 -0.573,-0.01 l 0,0 -0.005,0 -0.004,10e-4 c -0.237,0.026 -0.472,0.088 -0.695,0.186 -0.215,0.095 -0.421,0.224 -0.607,0.386 -0.183,0.16 -0.336,0.344 -0.458,0.541 -0.099,0.161 -0.178,0.332 -0.235,0.509 -0.558,0.123 -1.168,0.317 -1.787,0.575 -0.634,0.263 -1.282,0.595 -1.902,0.988 -0.745,0.47 -1.452,1.03 -2.048,1.666 -0.54,0.576 -0.991,1.217 -1.3,1.913 -0.199,0.447 -0.34,0.916 -0.407,1.404 -0.065,0.463 -0.065,0.943 0.01,1.437 l 0.001,0.001 c 0.023,0.147 0.105,0.278 0.219,0.369 0.11,0.087 0.254,0.14 0.403,0.138 l 10e-4,0 c 0.029,0 0.057,-0.003 0.083,-0.007 l 0,0 c 0.127,-0.021 0.238,-0.082 0.315,-0.169 l 10e-4,0 c 0.081,-0.091 0.128,-0.21 0.126,-0.341 0,-0.025 -0.003,-0.049 -0.006,-0.072 l 0,0 c -0.06,-0.394 -0.059,-0.776 -0.007,-1.144 0.055,-0.391 0.168,-0.768 0.328,-1.128 l 0,-0.001 c 0.264,-0.594 0.657,-1.148 1.131,-1.651 0.531,-0.565 1.165,-1.065 1.833,-1.487 0.518,-0.328 1.056,-0.609 1.582,-0.837 0.463,-0.201 0.919,-0.363 1.348,-0.481 0.03,0.158 0.076,0.314 0.138,0.465 0.092,0.221 0.218,0.432 0.379,0.623 0.035,0.143 0.039,0.325 0.014,0.535 -0.029,0.256 -0.1,0.546 -0.208,0.858 -0.163,0.469 -0.408,0.979 -0.724,1.493 -0.303,0.491 -0.67,0.984 -1.09,1.449 -0.451,0.497 -0.963,0.962 -1.525,1.354 -0.508,0.355 -1.058,0.651 -1.641,0.859 -0.571,0.204 -1.171,0.323 -1.789,0.328 -0.573,0.005 -1.166,-0.086 -1.771,-0.295 l 0,-10e-4 z m 11.734,9.986 c 0.115,0.08 0.254,0.122 0.387,0.125 0.143,0.003 0.285,-0.04 0.389,-0.128 0.03,-0.025 0.057,-0.055 0.08,-0.088 0.061,-0.088 0.086,-0.189 0.075,-0.291 -0.01,-0.092 -0.049,-0.184 -0.116,-0.263 C -6.754,12.616 -6.792,12.581 -6.839,12.548 -7.536,12.06 -8.078,11.494 -8.487,10.882 -8.936,10.21 -9.228,9.48 -9.391,8.731 -9.515,8.164 -9.567,7.589 -9.56,7.025 -9.552,6.41 -9.475,5.804 -9.347,5.228 -9.226,4.687 -9.058,4.171 -8.859,3.7 -8.651,3.211 -8.41,2.77 -8.151,2.4 -7.93,2.084 -7.7,1.823 -7.473,1.631 -7.267,1.456 -7.067,1.342 -6.884,1.302 -6.83,1.29 -6.778,1.271 -6.732,1.245 l 0.001,0 c 0.087,-0.047 0.153,-0.116 0.194,-0.198 l 0,0 C -6.493,0.96 -6.479,0.863 -6.501,0.764 l 0,-0.002 C -6.512,0.718 -6.527,0.675 -6.549,0.634 -6.615,0.515 -6.729,0.423 -6.859,0.37 l -0.001,0 C -6.984,0.32 -7.129,0.304 -7.263,0.333 -7.596,0.405 -7.931,0.58 -8.254,0.839 -8.573,1.094 -8.881,1.432 -9.162,1.834 -9.453,2.25 -9.724,2.742 -9.954,3.286 c -0.219,0.517 -0.403,1.084 -0.537,1.68 -0.141,0.633 -0.226,1.301 -0.235,1.979 -0.007,0.632 0.05,1.27 0.186,1.896 0.19,0.867 0.531,1.718 1.062,2.505 0.481,0.714 1.118,1.377 1.94,1.951 z M -4.835,-1.878 C -5.037,-1.861 -5.232,-1.884 -5.412,-1.941 -5.598,-2 -5.77,-2.096 -5.919,-2.222 c -0.148,-0.125 -0.272,-0.279 -0.362,-0.454 -0.086,-0.168 -0.143,-0.356 -0.16,-0.557 -0.013,-0.157 -0.002,-0.309 0.029,-0.451 0.029,-0.131 0.076,-0.256 0.139,-0.372 l 0.027,-0.047 c 0.075,-0.131 0.172,-0.251 0.285,-0.354 l -10e-4,-0.001 c 0.11,-0.1 0.235,-0.185 0.373,-0.249 l 0.109,-0.102 c 0.08,-0.148 0.13,-0.411 0.159,-0.739 l -0.001,0 c 0.017,-0.191 0.028,-0.409 0.035,-0.64 0.034,0.198 0.068,0.384 0.105,0.549 0.095,0.426 0.224,0.731 0.409,0.8 l 0.047,0.012 c 0.162,0.025 0.318,0.079 0.462,0.155 0.145,0.077 0.277,0.178 0.389,0.297 0.081,0.087 0.152,0.183 0.21,0.285 l -10e-4,10e-4 c 0.054,0.095 0.098,0.196 0.129,0.302 0.005,0.12 0.01,0.234 0.017,0.34 0.006,0.108 0.015,0.22 0.025,0.336 -0.022,0.128 -0.06,0.252 -0.112,0.367 -0.056,0.125 -0.13,0.241 -0.217,0.345 -0.125,0.148 -0.279,0.272 -0.454,0.362 -0.168,0.086 -0.356,0.142 -0.557,0.159 z m -2.21,-4.564 c -0.061,0.07 -0.121,0.14 -0.177,0.207 -0.258,0.31 -0.448,0.591 -0.464,0.767 l 0.025,0.128 c 0.059,0.116 0.098,0.242 0.117,0.37 0.019,0.131 0.016,0.264 -0.007,0.393 -0.024,0.129 -0.07,0.256 -0.136,0.373 -0.056,0.099 -0.128,0.191 -0.213,0.273 l -0.039,0.033 c -0.121,0.106 -0.258,0.184 -0.403,0.233 -0.149,0.05 -0.307,0.07 -0.463,0.06 -0.155,-0.01 -0.31,-0.051 -0.451,-0.121 -0.122,-0.06 -0.236,-0.143 -0.334,-0.245 L -9.624,-4.01 C -9.73,-4.131 -9.807,-4.269 -9.856,-4.413 l 0,0 c -0.051,-0.15 -0.071,-0.308 -0.06,-0.464 0.01,-0.154 0.051,-0.307 0.121,-0.449 0.067,-0.137 0.162,-0.263 0.283,-0.369 0.093,-0.081 0.197,-0.146 0.306,-0.194 0.112,-0.05 0.23,-0.081 0.348,-0.094 l 0.001,0 0.01,-0.001 0,0 c 0.119,-0.012 0.24,-0.006 0.359,0.017 0.118,0.024 0.232,0.065 0.336,0.122 l 0.127,0.069 0.12,-0.081 0.86,-0.585 z m -20.525,27.441 35.272,0 0,-35.272 -9.062,0 c -0.037,0.118 -0.083,0.239 -0.138,0.362 -0.149,0.337 -0.362,0.695 -0.628,1.059 -0.44,0.602 -1.039,1.242 -1.749,1.855 -0.668,0.576 -1.434,1.131 -2.259,1.609 -0.898,0.521 -1.871,0.956 -2.866,1.236 -0.901,0.254 -1.822,0.381 -2.725,0.333 -0.601,-0.032 -1.194,-0.142 -1.768,-0.343 -0.543,-0.19 -1.069,-0.461 -1.567,-0.825 l 0,0 c -0.12,-0.087 -0.199,-0.22 -0.228,-0.363 l 0,0 c -0.029,-0.139 -0.012,-0.291 0.057,-0.423 l 10e-4,-10e-4 c 0.014,-0.025 0.028,-0.047 0.042,-0.067 l 0.002,-0.003 c 0.076,-0.104 0.181,-0.174 0.295,-0.203 l 10e-4,0 c 0.117,-0.03 0.243,-0.016 0.358,0.044 l 10e-4,10e-4 c 0.019,0.01 0.041,0.024 0.063,0.041 l 10e-4,0 c 0.413,0.302 0.849,0.527 1.301,0.684 0.479,0.167 0.977,0.259 1.482,0.286 0.796,0.042 1.615,-0.074 2.422,-0.303 0.902,-0.256 1.79,-0.654 2.615,-1.133 0.764,-0.443 1.472,-0.954 2.086,-1.483 0.65,-0.56 1.195,-1.14 1.592,-1.682 0.176,-0.242 0.321,-0.471 0.429,-0.681 l -9.845,0 -0.136,0.076 c -1.125,0.641 -2.149,1.418 -2.971,2.337 -0.431,0.481 -0.806,1.004 -1.111,1.569 -0.288,0.534 -0.513,1.103 -0.661,1.71 -0.047,0.193 -0.168,0.35 -0.326,0.446 -0.157,0.095 -0.353,0.131 -0.545,0.085 -0.194,-0.047 -0.351,-0.168 -0.446,-0.326 -0.096,-0.157 -0.132,-0.352 -0.085,-0.545 0.177,-0.728 0.445,-1.409 0.788,-2.044 0.36,-0.669 0.805,-1.288 1.314,-1.858 0.47,-0.526 0.996,-1.009 1.564,-1.45 l -12.57,0 0,35.272 z"
           id="path4394"
           style="fill:#003882;fill-opacity:1;fill-rule:evenodd;stroke:none" /></g><g
         transform="translate(317.3153,418.1097)"
         id="g4396"><path
           d="m 0,0 34.32,0 0.476,0 0,-0.476 0,-34.32 0,-0.476 -0.476,0 -34.32,0 -0.476,0 0,0.476 0,34.32 0,0.476 L 0,0 z m 33.845,-0.951 -33.37,0 0,-33.37 33.37,0 0,33.37 z"
           id="path4398"
           style="fill:#666666;fill-opacity:1;fill-rule:nonzero;stroke:none" /></g><g
         transform="translate(319.1516,392.9187)"
         id="g4402"><path
           d="m 0,0 3.376,8.787 1.252,0 L 8.224,0 6.898,0 5.873,2.662 2.199,2.662 1.236,0 0,0 z m 2.535,3.609 2.98,0 -0.918,2.433 C 4.319,6.78 4.11,7.387 3.975,7.864 3.863,7.299 3.705,6.741 3.5,6.184 L 2.535,3.609 z m 11.443,5.178 1.164,0 0,-5.078 c 0,-0.881 -0.1,-1.583 -0.3,-2.103 C 14.641,1.087 14.281,0.665 13.759,0.34 13.238,0.012 12.554,-0.149 11.707,-0.149 10.885,-0.149 10.21,-0.008 9.688,0.276 9.164,0.559 8.79,0.97 8.567,1.508 8.342,2.046 8.232,2.778 8.232,3.709 l 0,5.078 1.162,0 0,-5.072 C 9.394,2.952 9.465,2.39 9.606,2.03 9.747,1.667 9.993,1.389 10.337,1.193 c 0.345,-0.197 0.769,-0.295 1.268,-0.295 0.855,0 1.465,0.194 1.829,0.583 0.362,0.387 0.544,1.132 0.544,2.234 l 0,5.072 z M 16.138,0 l 0,8.787 3.025,0 c 0.683,0 1.205,-0.043 1.565,-0.127 0.504,-0.115 0.933,-0.325 1.289,-0.628 0.462,-0.393 0.81,-0.892 1.04,-1.502 0.231,-0.609 0.345,-1.305 0.345,-2.088 0,-0.668 -0.077,-1.259 -0.235,-1.774 C 23.011,2.152 22.813,1.725 22.568,1.387 22.324,1.05 22.058,0.784 21.768,0.591 21.479,0.397 21.13,0.25 20.72,0.149 20.309,0.049 19.839,0 19.309,0 l -3.171,0 z m 1.162,1.037 1.876,0 c 0.579,0 1.035,0.053 1.364,0.162 0.33,0.108 0.592,0.26 0.788,0.456 0.276,0.274 0.491,0.646 0.644,1.111 0.154,0.466 0.232,1.029 0.232,1.694 0,0.918 -0.152,1.624 -0.453,2.117 -0.302,0.495 -0.669,0.825 -1.1,0.992 C 20.34,7.69 19.836,7.75 19.147,7.75 l -1.847,0 0,-6.713 z M 24.087,0 l 0,8.787 6.352,0 0,-1.037 -5.19,0 0,-2.691 4.861,0 0,-1.031 -4.861,0 0,-2.991 5.394,0 0,-1.037 -6.556,0 z"
           id="path4404"
           style="fill:#666666;fill-opacity:1;fill-rule:nonzero;stroke:none" /></g><g
         transform="translate(320.5083,404.0861)"
         id="g4408"><path
           d="m 0,0 0.725,0.063 c 0.033,-0.29 0.113,-0.528 0.239,-0.714 0.125,-0.187 0.32,-0.337 0.583,-0.452 0.264,-0.115 0.561,-0.171 0.891,-0.171 0.294,0 0.552,0.043 0.776,0.129 0.225,0.088 0.392,0.207 0.502,0.358 0.109,0.153 0.165,0.318 0.165,0.498 0,0.182 -0.053,0.341 -0.16,0.477 C 3.616,0.325 3.441,0.438 3.199,0.53 3.043,0.591 2.699,0.685 2.165,0.814 1.633,0.942 1.258,1.062 1.045,1.176 0.768,1.321 0.561,1.502 0.424,1.717 0.289,1.931 0.222,2.173 0.222,2.44 c 0,0.292 0.082,0.566 0.248,0.821 0.166,0.255 0.41,0.448 0.729,0.58 0.32,0.132 0.674,0.198 1.065,0.198 0.431,0 0.81,-0.069 1.14,-0.208 C 3.732,3.693 3.985,3.489 4.162,3.22 4.338,2.951 4.434,2.645 4.447,2.305 L 3.71,2.249 C 3.67,2.616 3.536,2.894 3.308,3.081 3.079,3.269 2.742,3.362 2.296,3.362 1.831,3.362 1.494,3.277 1.28,3.106 1.068,2.936 0.961,2.731 0.961,2.491 0.961,2.282 1.037,2.11 1.187,1.976 1.335,1.841 1.721,1.703 2.345,1.563 2.97,1.421 3.398,1.298 3.631,1.192 3.969,1.035 4.219,0.838 4.38,0.6 4.54,0.361 4.62,0.085 4.62,-0.226 4.62,-0.535 4.532,-0.826 4.355,-1.099 4.178,-1.372 3.924,-1.584 3.593,-1.737 3.262,-1.888 2.889,-1.964 2.475,-1.964 c -0.526,0 -0.966,0.076 -1.321,0.23 C 0.799,-1.581 0.52,-1.352 0.318,-1.043 0.116,-0.737 0.009,-0.388 0,0 z m 4.427,-1.865 2.231,5.805 0.827,0 2.376,-5.805 -0.876,0 -0.677,1.758 -2.428,0 -0.636,-1.758 -0.817,0 z m 1.675,2.384 1.969,0 -0.606,1.607 C 7.281,2.614 7.143,3.016 7.054,3.331 6.979,2.958 6.875,2.589 6.74,2.221 L 6.102,0.519 z m 3.768,-2.384 0,5.805 2.19,0 c 0.385,0 0.679,-0.019 0.882,-0.055 0.286,-0.047 0.524,-0.138 0.718,-0.272 0.192,-0.132 0.347,-0.32 0.465,-0.559 0.118,-0.241 0.176,-0.505 0.176,-0.793 0,-0.493 -0.157,-0.912 -0.47,-1.254 C 13.515,0.666 12.948,0.495 12.127,0.495 l -1.489,0 0,-2.36 -0.768,0 z m 0.768,3.045 1.501,0 c 0.496,0 0.849,0.092 1.057,0.277 0.208,0.186 0.312,0.445 0.312,0.78 0,0.243 -0.06,0.452 -0.183,0.625 -0.123,0.173 -0.284,0.286 -0.486,0.341 -0.129,0.034 -0.367,0.052 -0.716,0.052 l -1.485,0 0,-2.075 z m 4.053,-3.045 0,5.805 4.196,0 0,-0.685 -3.429,0 0,-1.777 3.212,0 0,-0.682 -3.212,0 0,-1.976 3.565,0 0,-0.685 -4.332,0 z m 4.8,0 0,5.805 2.574,0 c 0.518,0 0.911,-0.052 1.18,-0.156 0.269,-0.104 0.484,-0.288 0.646,-0.552 0.161,-0.265 0.24,-0.557 0.24,-0.876 0,-0.412 -0.132,-0.758 -0.4,-1.04 C 23.465,1.033 23.053,0.853 22.496,0.776 22.7,0.679 22.854,0.583 22.96,0.487 23.184,0.281 23.396,0.023 23.598,-0.285 l 1.009,-1.58 -0.966,0 -0.768,1.208 c -0.225,0.348 -0.41,0.615 -0.556,0.799 -0.144,0.185 -0.274,0.315 -0.389,0.388 -0.115,0.074 -0.231,0.126 -0.35,0.155 -0.088,0.018 -0.23,0.028 -0.429,0.028 l -0.89,0 0,-2.578 -0.768,0 z m 0.768,3.243 1.651,0 c 0.35,0 0.626,0.036 0.824,0.109 0.198,0.073 0.349,0.189 0.451,0.349 0.103,0.159 0.154,0.332 0.154,0.52 0,0.275 -0.099,0.5 -0.298,0.677 -0.199,0.177 -0.514,0.265 -0.945,0.265 l -1.837,0 0,-1.92 z m 4.488,-3.243 0,5.805 4.197,0 0,-0.685 -3.429,0 0,-1.777 3.212,0 0,-0.682 -3.212,0 0,-1.976 3.564,0 0,-0.685 -4.332,0 z"
           id="path4410"
           style="fill:#666666;fill-opacity:1;fill-rule:nonzero;stroke:none" /></g><g
         transform="translate(223.6751,365.1454)"
         id="g4412"><path
           d="m 0,0 -4.84,12.493 1.792,0 3.246,-9.075 C 0.46,2.691 0.678,2.007 0.852,1.373 1.047,2.054 1.271,2.734 1.527,3.418 l 3.374,9.075 1.687,0 L 1.696,0 0,0 z m 7.474,0 0,12.493 1.652,0 L 9.126,0 7.474,0 z m 3.617,0 0,12.493 1.655,0 0,-11.018 6.152,0 0,-1.475 -7.807,0 z m 8.879,0 0,12.493 1.696,0 6.562,-9.808 0,9.808 1.585,0 0,-12.493 -1.696,0 -6.561,9.817 0,-9.817 -1.586,0 z m 12.024,0 0,12.493 1.652,0 0,-12.493 -1.652,0 z m 11.883,12.493 1.655,0 0,-7.22 c 0,-1.253 -0.142,-2.251 -0.428,-2.99 -0.285,-0.738 -0.796,-1.338 -1.538,-1.8 -0.742,-0.465 -1.713,-0.695 -2.918,-0.695 -1.169,0 -2.129,0.2 -2.87,0.605 -0.745,0.401 -1.277,0.986 -1.594,1.751 -0.32,0.765 -0.477,1.806 -0.477,3.129 l 0,7.22 1.652,0 0,-7.211 c 0,-1.085 0.102,-1.885 0.302,-2.397 0.201,-0.514 0.55,-0.91 1.039,-1.189 0.491,-0.279 1.093,-0.419 1.803,-0.419 1.216,0 2.082,0.276 2.6,0.829 0.515,0.55 0.774,1.609 0.774,3.176 l 0,7.211 z m 2.966,-8.479 1.559,0.137 c 0.072,-0.626 0.244,-1.137 0.515,-1.539 0.27,-0.401 0.689,-0.724 1.256,-0.971 0.567,-0.248 1.207,-0.37 1.917,-0.37 0.631,0 1.187,0.093 1.67,0.28 0.482,0.189 0.843,0.444 1.079,0.77 0.235,0.329 0.355,0.684 0.355,1.071 0,0.392 -0.114,0.733 -0.344,1.026 -0.227,0.294 -0.602,0.538 -1.122,0.736 -0.338,0.131 -1.077,0.335 -2.226,0.611 -1.146,0.277 -1.951,0.535 -2.411,0.78 -0.596,0.311 -1.041,0.7 -1.335,1.163 -0.291,0.463 -0.436,0.98 -0.436,1.556 0,0.628 0.177,1.219 0.535,1.766 0.358,0.55 0.881,0.965 1.568,1.25 0.689,0.283 1.451,0.425 2.292,0.425 0.928,0 1.742,-0.148 2.452,-0.448 0.706,-0.296 1.25,-0.736 1.631,-1.315 0.379,-0.579 0.585,-1.236 0.614,-1.969 L 54.827,8.854 c -0.087,0.788 -0.375,1.387 -0.867,1.789 -0.491,0.404 -1.215,0.605 -2.175,0.605 -1.001,0 -1.728,-0.184 -2.188,-0.55 -0.456,-0.367 -0.686,-0.808 -0.686,-1.324 0,-0.45 0.163,-0.82 0.485,-1.108 0.321,-0.29 1.149,-0.587 2.493,-0.89 1.344,-0.305 2.266,-0.57 2.766,-0.797 0.727,-0.337 1.266,-0.762 1.612,-1.274 0.346,-0.514 0.518,-1.108 0.518,-1.777 0,-0.666 -0.19,-1.291 -0.571,-1.878 -0.381,-0.588 -0.928,-1.045 -1.64,-1.374 -0.713,-0.325 -1.515,-0.488 -2.405,-0.488 -1.132,0 -2.08,0.163 -2.842,0.494 -0.765,0.329 -1.364,0.824 -1.801,1.487 -0.433,0.66 -0.663,1.41 -0.683,2.245 z m 22.017,0.887 0,1.463 5.291,0.009 0,-4.633 C 73.339,1.091 72.502,0.605 71.638,0.276 c -0.864,-0.325 -1.751,-0.488 -2.659,-0.488 -1.227,0 -2.344,0.262 -3.345,0.788 -1.003,0.524 -1.759,1.286 -2.271,2.277 -0.512,0.995 -0.768,2.106 -0.768,3.334 0,1.216 0.256,2.35 0.765,3.403 0.506,1.056 1.239,1.838 2.193,2.35 0.954,0.509 2.053,0.765 3.299,0.765 0.901,0 1.718,-0.145 2.448,-0.439 0.73,-0.291 1.304,-0.698 1.717,-1.222 0.415,-0.523 0.73,-1.204 0.948,-2.045 l -1.492,-0.41 c -0.189,0.637 -0.422,1.138 -0.698,1.501 -0.28,0.364 -0.678,0.654 -1.196,0.873 -0.515,0.218 -1.091,0.328 -1.719,0.328 -0.756,0 -1.411,-0.116 -1.96,-0.346 C 66.347,10.716 65.905,10.413 65.564,10.038 65.227,9.663 64.965,9.252 64.777,8.802 64.459,8.031 64.299,7.193 64.299,6.288 c 0,-1.113 0.192,-2.044 0.576,-2.795 0.384,-0.75 0.943,-1.305 1.676,-1.669 0.733,-0.364 1.509,-0.547 2.333,-0.547 0.718,0 1.416,0.14 2.096,0.416 0.684,0.273 1.199,0.567 1.551,0.881 l 0,2.327 -3.671,0 z M 75.744,0 l 0,12.493 9.031,0 0,-1.475 -7.379,0 0,-3.825 6.911,0 0,-1.466 -6.911,0 0,-4.252 7.67,0 0,-1.475 -9.322,0 z m 10.726,0 0,12.493 4.302,0 c 0.971,0 1.713,-0.061 2.225,-0.181 0.715,-0.162 1.326,-0.462 1.832,-0.893 0.657,-0.558 1.152,-1.267 1.478,-2.135 0.328,-0.866 0.491,-1.855 0.491,-2.969 0,-0.948 -0.11,-1.789 -0.334,-2.522 C 96.243,3.06 95.96,2.452 95.612,1.972 95.266,1.492 94.887,1.114 94.474,0.84 94.064,0.564 93.567,0.355 92.985,0.213 92.4,0.07 91.731,0 90.978,0 L 86.47,0 z m 1.652,1.475 2.667,0 c 0.823,0 1.472,0.076 1.94,0.23 0.469,0.154 0.841,0.369 1.12,0.648 0.393,0.39 0.698,0.919 0.916,1.58 0.218,0.663 0.329,1.462 0.329,2.408 0,1.306 -0.216,2.309 -0.643,3.01 -0.431,0.704 -0.951,1.173 -1.565,1.411 -0.442,0.172 -1.157,0.256 -2.138,0.256 l -2.626,0 0,-9.543 z M 98.476,0 l 0,12.493 1.652,0 0,-12.493 -1.652,0 z m 3.634,0 0,12.493 2.49,0 2.955,-8.845 c 0.274,-0.824 0.474,-1.44 0.596,-1.85 0.143,0.453 0.364,1.122 0.667,2.004 l 2.99,8.691 2.224,0 0,-12.493 -1.593,0 0,10.457 -3.63,-10.457 -1.492,0 -3.613,10.634 0,-10.634 -1.594,0 z m 13.993,0 0,12.493 1.651,0 0,-12.493 -1.651,0 z m 3.669,0 0,12.493 1.696,0 6.562,-9.808 0,9.808 1.585,0 0,-12.493 -1.696,0 -6.562,9.817 0,-9.817 -1.585,0 z m 10.368,0 4.799,12.493 1.781,0 5.113,-12.493 -1.885,0 -1.457,3.784 -5.224,0 L 131.897,0 130.14,0 z m 3.604,5.131 4.238,0 -1.306,3.458 c -0.396,1.05 -0.692,1.914 -0.884,2.592 -0.16,-0.803 -0.384,-1.597 -0.675,-2.388 l -1.373,-3.662 z m 7.968,-1.117 1.559,0.137 c 0.073,-0.626 0.245,-1.137 0.515,-1.539 0.271,-0.401 0.69,-0.724 1.257,-0.971 0.567,-0.248 1.207,-0.37 1.917,-0.37 0.631,0 1.186,0.093 1.669,0.28 0.483,0.189 0.844,0.444 1.079,0.77 0.236,0.329 0.355,0.684 0.355,1.071 0,0.392 -0.113,0.733 -0.343,1.026 -0.227,0.294 -0.602,0.538 -1.123,0.736 -0.337,0.131 -1.076,0.335 -2.225,0.611 -1.146,0.277 -1.952,0.535 -2.411,0.78 -0.596,0.311 -1.041,0.7 -1.335,1.163 -0.291,0.463 -0.437,0.98 -0.437,1.556 0,0.628 0.178,1.219 0.536,1.766 0.357,0.55 0.881,0.965 1.568,1.25 0.689,0.283 1.451,0.425 2.292,0.425 0.927,0 1.742,-0.148 2.452,-0.448 0.706,-0.296 1.25,-0.736 1.631,-1.315 0.378,-0.579 0.585,-1.236 0.614,-1.969 l -1.585,-0.119 c -0.087,0.788 -0.375,1.387 -0.867,1.789 -0.492,0.404 -1.216,0.605 -2.176,0.605 -1,0 -1.727,-0.184 -2.187,-0.55 -0.457,-0.367 -0.686,-0.808 -0.686,-1.324 0,-0.45 0.163,-0.82 0.485,-1.108 0.32,-0.29 1.149,-0.587 2.493,-0.89 1.344,-0.305 2.266,-0.57 2.766,-0.797 0.727,-0.337 1.265,-0.762 1.612,-1.274 0.346,-0.514 0.517,-1.108 0.517,-1.777 0,-0.666 -0.189,-1.291 -0.57,-1.878 -0.381,-0.588 -0.928,-1.045 -1.64,-1.374 -0.713,-0.325 -1.516,-0.488 -2.406,-0.488 -1.131,0 -2.079,0.163 -2.842,0.494 -0.764,0.329 -1.364,0.824 -1.8,1.487 -0.433,0.66 -0.663,1.41 -0.684,2.245 z m -159.363,-21.703 0,11.018 -4.116,0 0,1.475 9.901,0 0,-1.475 -4.133,0 0,-11.018 -1.652,0 z m 6.636,0 0,12.493 9.032,0 0,-1.475 -7.379,0 0,-3.825 6.911,0 0,-1.466 -6.911,0 0,-4.252 7.67,0 0,-1.475 -9.323,0 z m 19.639,4.38 1.655,-0.418 c -0.346,-1.356 -0.972,-2.391 -1.871,-3.107 -0.901,-0.712 -2.001,-1.067 -3.304,-1.067 -1.347,0 -2.44,0.273 -3.284,0.82 -0.843,0.55 -1.486,1.344 -1.925,2.382 -0.439,1.041 -0.661,2.159 -0.661,3.351 0,1.3 0.248,2.435 0.745,3.403 0.498,0.969 1.204,1.705 2.123,2.208 0.917,0.503 1.926,0.753 3.028,0.753 1.251,0 2.301,-0.317 3.153,-0.954 0.852,-0.637 1.446,-1.53 1.781,-2.685 L 8.438,-9.007 c -0.292,0.911 -0.71,1.571 -1.263,1.987 -0.55,0.416 -1.242,0.622 -2.079,0.622 -0.961,0 -1.76,-0.229 -2.406,-0.689 -0.646,-0.462 -1.1,-1.079 -1.358,-1.856 -0.262,-0.773 -0.393,-1.573 -0.393,-2.396 0,-1.065 0.154,-1.99 0.462,-2.784 0.312,-0.791 0.792,-1.384 1.446,-1.777 0.655,-0.393 1.361,-0.587 2.124,-0.587 0.924,0 1.707,0.267 2.35,0.799 0.642,0.536 1.076,1.329 1.303,2.379 z m 2.861,-4.38 0,12.493 1.655,0 0,-5.131 6.492,0 0,5.131 1.655,0 0,-12.493 -1.655,0 0,5.887 -6.492,0 0,-5.887 -1.655,0 z m 11.656,0 0,12.493 1.696,0 6.562,-9.808 0,9.808 1.585,0 0,-12.493 -1.696,0 -6.561,9.817 0,-9.817 -1.586,0 z m 12.024,0 0,12.493 1.652,0 0,-12.493 -1.652,0 z m 12.599,4.38 1.655,-0.418 c -0.346,-1.356 -0.972,-2.391 -1.871,-3.107 -0.901,-0.712 -2.001,-1.067 -3.304,-1.067 -1.347,0 -2.44,0.273 -3.284,0.82 -0.843,0.55 -1.486,1.344 -1.925,2.382 -0.439,1.041 -0.66,2.159 -0.66,3.351 0,1.3 0.247,2.435 0.744,3.403 0.497,0.969 1.204,1.705 2.124,2.208 0.916,0.503 1.925,0.753 3.027,0.753 1.251,0 2.301,-0.317 3.153,-0.954 0.852,-0.637 1.446,-1.53 1.781,-2.685 l -1.627,-0.384 c -0.291,0.911 -0.709,1.571 -1.262,1.987 -0.55,0.416 -1.242,0.622 -2.079,0.622 -0.961,0 -1.76,-0.229 -2.406,-0.689 -0.646,-0.462 -1.099,-1.079 -1.358,-1.856 -0.262,-0.773 -0.393,-1.573 -0.393,-2.396 0,-1.065 0.154,-1.99 0.462,-2.784 0.312,-0.791 0.792,-1.384 1.446,-1.777 0.655,-0.393 1.361,-0.587 2.124,-0.587 0.924,0 1.707,0.267 2.349,0.799 0.643,0.536 1.077,1.329 1.304,2.379 z m 1.438,-4.38 4.799,12.493 1.781,0 5.113,-12.493 -1.885,0 -1.457,3.784 -5.224,0 -1.37,-3.784 -1.757,0 z m 3.604,5.131 4.238,0 -1.306,3.458 c -0.396,1.051 -0.692,1.914 -0.884,2.592 -0.16,-0.803 -0.384,-1.597 -0.675,-2.388 l -1.373,-3.662 z m 8.46,-5.131 0,12.493 1.655,0 0,-11.018 6.152,0 0,-1.475 -7.807,0 z m 21.293,12.493 1.655,0 0,-7.22 c 0,-1.253 -0.142,-2.251 -0.428,-2.99 -0.284,-0.738 -0.796,-1.338 -1.538,-1.8 -0.742,-0.465 -1.713,-0.695 -2.917,-0.695 -1.17,0 -2.129,0.2 -2.871,0.605 -0.745,0.401 -1.277,0.986 -1.594,1.751 -0.32,0.765 -0.477,1.806 -0.477,3.129 l 0,7.22 1.652,0 0,-7.211 c 0,-1.085 0.102,-1.885 0.302,-2.397 0.201,-0.514 0.55,-0.91 1.039,-1.189 0.491,-0.28 1.094,-0.419 1.803,-0.419 1.216,0 2.083,0.276 2.601,0.829 0.514,0.55 0.773,1.608 0.773,3.176 l 0,7.211 z m 3.51,-12.493 0,12.493 1.696,0 6.562,-9.808 0,9.808 1.585,0 0,-12.493 -1.696,0 -6.562,9.817 0,-9.817 -1.585,0 z m 12.023,0 0,12.493 1.652,0 0,-12.493 -1.652,0 z m 7.256,0 -4.84,12.493 1.791,0 3.247,-9.075 c 0.261,-0.727 0.48,-1.411 0.654,-2.045 0.195,0.681 0.419,1.361 0.675,2.045 l 3.374,9.075 1.687,0 -4.892,-12.493 -1.696,0 z m 7.227,0 0,12.493 9.031,0 0,-1.475 -7.379,0 0,-3.825 6.911,0 0,-1.466 -6.911,0 0,-4.252 7.67,0 0,-1.475 -9.322,0 z m 10.752,0 0,12.493 5.538,0 c 1.114,0 1.96,-0.114 2.539,-0.338 0.579,-0.224 1.042,-0.619 1.391,-1.186 0.346,-0.57 0.517,-1.199 0.517,-1.885 0,-0.887 -0.285,-1.632 -0.861,-2.24 -0.572,-0.608 -1.46,-0.995 -2.658,-1.16 0.439,-0.21 0.771,-0.416 0.998,-0.623 0.482,-0.442 0.939,-0.998 1.373,-1.661 l 2.172,-3.4 -2.08,0 -1.651,2.6 c -0.483,0.748 -0.882,1.324 -1.196,1.719 -0.311,0.399 -0.59,0.678 -0.838,0.835 -0.247,0.16 -0.497,0.271 -0.753,0.335 -0.189,0.037 -0.494,0.058 -0.922,0.058 l -1.917,0 0,-5.547 -1.652,0 z m 1.652,6.978 3.555,0 c 0.753,0 1.346,0.079 1.771,0.236 0.427,0.157 0.75,0.407 0.971,0.75 0.222,0.343 0.332,0.716 0.332,1.12 0,0.59 -0.212,1.076 -0.643,1.457 -0.428,0.381 -1.105,0.57 -2.033,0.57 l -3.953,0 0,-4.133 z m 9.484,-2.964 1.559,0.137 c 0.073,-0.625 0.245,-1.138 0.515,-1.539 0.271,-0.401 0.689,-0.724 1.257,-0.971 0.567,-0.248 1.207,-0.37 1.916,-0.37 0.632,0 1.187,0.093 1.67,0.28 0.483,0.189 0.843,0.444 1.079,0.77 0.236,0.329 0.355,0.684 0.355,1.071 0,0.392 -0.114,0.733 -0.344,1.026 -0.226,0.294 -0.601,0.538 -1.122,0.736 -0.338,0.131 -1.076,0.335 -2.225,0.611 -1.146,0.276 -1.952,0.535 -2.411,0.78 -0.597,0.311 -1.042,0.7 -1.336,1.163 -0.29,0.463 -0.436,0.98 -0.436,1.556 0,0.628 0.178,1.219 0.535,1.766 0.358,0.55 0.882,0.965 1.568,1.25 0.689,0.283 1.451,0.425 2.292,0.425 0.928,0 1.742,-0.148 2.452,-0.448 0.707,-0.297 1.251,-0.736 1.632,-1.315 0.378,-0.579 0.584,-1.236 0.613,-1.969 l -1.585,-0.119 c -0.087,0.788 -0.375,1.387 -0.867,1.789 -0.491,0.404 -1.215,0.605 -2.175,0.605 -1.001,0 -1.728,-0.183 -2.188,-0.55 -0.456,-0.367 -0.686,-0.808 -0.686,-1.323 0,-0.451 0.163,-0.821 0.486,-1.109 0.32,-0.29 1.149,-0.587 2.493,-0.89 1.344,-0.305 2.265,-0.57 2.766,-0.796 0.727,-0.338 1.265,-0.763 1.611,-1.275 0.346,-0.514 0.518,-1.108 0.518,-1.777 0,-0.666 -0.189,-1.291 -0.57,-1.879 -0.381,-0.587 -0.928,-1.044 -1.641,-1.373 -0.713,-0.325 -1.515,-0.488 -2.405,-0.488 -1.132,0 -2.08,0.163 -2.842,0.494 -0.765,0.329 -1.364,0.824 -1.801,1.486 -0.433,0.661 -0.663,1.411 -0.683,2.246 z m 11.605,-4.014 0,12.493 1.652,0 0,-12.493 -1.652,0 z m 6.866,0 0,11.018 -4.116,0 0,1.475 9.901,0 0,-1.475 -4.133,0 0,-11.018 -1.652,0 z m 10.121,0 0,5.291 -4.814,7.202 2.01,0 2.463,-3.767 c 0.454,-0.704 0.876,-1.408 1.268,-2.114 0.376,0.654 0.829,1.39 1.365,2.207 l 2.42,3.674 1.925,0 -4.985,-7.202 0,-5.291 -1.652,0 z"
           id="path4414"
           style="fill:#666666;fill-opacity:1;fill-rule:nonzero;stroke:none" /></g></g></g></svg>